# Blender v3.1.2 OBJ File: ''
# www.blender.org
mtllib materials.mtl
o Dirgem_LOD1_Cylinder.005
v -0.008134 0.194179 -0.027570
v -0.000000 0.198072 -0.027570
v -0.163823 -0.103798 -0.027570
v -0.171821 -0.089945 -0.027570
v -0.171517 -0.099005 -0.027570
v -0.000000 0.116766 -0.031514
v 0.101105 -0.058353 -0.031514
v -0.101105 -0.058353 -0.031514
v -0.000000 0.158413 0.010611
v 0.137172 -0.079176 0.010611
v -0.137172 -0.079176 0.010611
v -0.000000 -0.008992 -0.232153
v -0.007805 0.004527 -0.232153
v 0.007805 0.004527 -0.232153
v -0.005184 -0.002973 -0.234717
v 0.005184 -0.002973 -0.234717
v -0.000000 0.000020 -0.237093
v -0.000000 0.006007 -0.234717
v 0.164079 -0.104104 -0.027570
v 0.172214 -0.090015 -0.027570
v 0.171517 -0.099005 -0.027570
v 0.008134 0.194179 -0.027570
v 0.023404 0.013533 -0.061385
v -0.023404 0.013533 -0.061385
v -0.000000 -0.027005 -0.061385
v 0.109210 0.008524 0.010167
v 0.061969 0.090347 0.010167
v -0.061969 0.090347 0.010167
v -0.109210 0.008524 0.010167
v -0.047240 -0.098810 0.010167
v 0.047240 -0.098810 0.010167
v -0.156210 -0.090168 -0.001383
v -0.000000 0.180397 -0.001383
v -0.008935 0.176121 -0.001383
v 0.156210 -0.090168 -0.001383
v 0.156975 -0.080292 -0.001383
v 0.148040 -0.095768 -0.001383
v -0.148040 -0.095768 -0.001383
v -0.156975 -0.080292 -0.001383
v 0.008935 0.176121 -0.001383
v 0.123646 0.007893 -0.001168
v 0.055005 -0.110996 -0.001168
v -0.055005 -0.110996 -0.001168
v -0.068640 0.103165 -0.001168
v 0.068640 0.103164 -0.001168
v -0.123646 0.007893 -0.001168
v -0.008134 0.194179 -0.027570
v -0.000000 0.198072 -0.027570
v -0.163823 -0.103798 -0.027570
v -0.171821 -0.089945 -0.027570
v -0.171517 -0.099005 -0.027570
v 0.164079 -0.104104 -0.027570
v 0.172214 -0.090015 -0.027570
v 0.171517 -0.099005 -0.027570
v 0.008134 0.194179 -0.027570
v -0.000000 0.229046 -0.023939
v 0.198342 -0.114493 -0.023939
v -0.198342 -0.114493 -0.023939
v -0.196537 -0.113450 -0.003677
v -0.000000 0.226962 -0.003677
v 0.196537 -0.113450 -0.003677
v -0.201328 -0.128140 -0.013532
v -0.211654 -0.110255 -0.013532
v 0.010326 0.238455 -0.013532
v 0.201328 -0.128140 -0.013532
v -0.010326 0.238455 -0.013532
v -0.000000 0.243397 -0.013532
v 0.210770 -0.121668 -0.013532
v 0.211654 -0.110255 -0.013532
v -0.210770 -0.121668 -0.013532
v 0.157659 0.008536 -0.025848
v 0.086205 0.132299 -0.025848
v -0.157659 0.008536 -0.025848
v 0.071455 -0.140775 -0.025848
v -0.086205 0.132299 -0.025848
v -0.071455 -0.140775 -0.025848
v 0.156322 0.008681 -0.001436
v -0.085662 0.131069 -0.001436
v -0.070661 -0.139689 -0.001436
v 0.070661 -0.139689 -0.001436
v -0.156322 0.008681 -0.001436
v 0.085662 0.131069 -0.001436
v 0.091748 0.140577 -0.012396
v 0.075851 -0.149714 -0.012396
v -0.075851 -0.149714 -0.012396
v -0.091748 0.140577 -0.012396
v -0.167600 0.009199 -0.012396
v 0.167600 0.009199 -0.012396
v -0.156210 -0.090168 -0.001383
v -0.000000 0.180397 -0.001383
v -0.008935 0.176121 -0.001383
v 0.156210 -0.090168 -0.001383
v 0.156975 -0.080292 -0.001383
v 0.148040 -0.095768 -0.001383
v -0.148040 -0.095768 -0.001383
v -0.156975 -0.080292 -0.001383
v 0.008935 0.176121 -0.001383
v 0.123646 0.007893 -0.001168
v 0.055005 -0.110996 -0.001168
v -0.055005 -0.110996 -0.001168
v -0.068640 0.103165 -0.001168
v 0.068640 0.103164 -0.001168
v -0.123646 0.007893 -0.001168
vt 0.451376 0.663281
vt 0.482822 0.663281
vt 0.419930 0.663281
vt 0.313049 0.634655
vt 0.565135 0.580644
vt 0.549977 0.583513
vt 0.560629 0.580644
vt 0.552550 0.580644
vt 0.540581 0.580644
vt 0.539965 0.580644
vt 0.279242 0.995607
vt 0.278328 0.995607
vt 0.287322 0.995607
vt 0.290913 0.995607
vt 0.544470 0.995607
vt 0.544471 0.580644
vt 0.560630 0.995607
vt 0.817778 0.995607
vt 0.814187 0.995607
vt 0.825858 0.995607
vt 0.826772 0.995607
vt 0.448895 0.634655
vt 0.584742 0.634655
vt 0.737737 0.965548
vt 0.565135 0.976155
vt 0.658646 0.965319
vt 0.451292 0.965548
vt 0.539965 0.976155
vt 0.366551 0.965319
vt 0.632452 0.965319
vt 0.468621 0.965548
vt 0.552550 0.976155
vt 0.531867 0.003639
vt 0.468653 0.003059
vt 0.514880 0.003659
vt 0.600081 0.003639
vt 0.633817 0.003059
vt 0.370884 0.003639
vt 0.434098 0.003059
vt 0.383162 0.003639
vt 0.286212 0.003059
vt 0.537329 0.003667
vt 0.596031 0.003667
vt 0.368030 0.003659
vt 0.304526 0.003659
vt 0.387872 0.003659
vt 0.598225 0.003659
vt 0.519589 0.003639
vt 0.616540 0.003059
vt 0.392674 0.003667
vt 0.510078 0.003667
vt 0.534721 0.003659
vt 0.365423 0.003667
vt 0.306721 0.003667
vt 0.302671 0.003639
vt 0.268934 0.003059
vt 0.828013 0.001953
vt 0.835373 0.903487
vt 0.842543 0.903487
vt 0.486483 0.001953
vt 0.494919 0.903487
vt 0.486407 0.903487
vt 0.131626 0.001953
vt 0.115831 0.903487
vt 0.117173 0.903487
vt 0.772570 0.903487
vt 0.827205 0.001953
vt 0.841749 0.903487
vt 0.646199 0.903487
vt 0.753929 0.001953
vt 0.765063 0.903487
vt 0.636182 0.903487
vt 0.510098 0.001953
vt 0.630947 0.001953
vt 0.327900 0.903487
vt 0.453984 0.001953
vt 0.454470 0.903487
vt 0.199019 0.903487
vt 0.323282 0.001953
vt 0.317882 0.903487
vt 0.191511 0.903487
vt 0.136877 0.001953
vt 0.202779 0.001953
vt 0.345652 0.903487
vt 0.164934 0.001953
vt 0.149904 0.903487
vt 0.600904 0.903487
vt 0.368912 0.001953
vt 0.363178 0.903487
vt 0.618429 0.903487
vt 0.799148 0.001953
vt 0.612397 0.001953
vt 0.564519 0.580644
vt 0.548660 0.580644
vt 0.539965 0.995607
vt 0.565135 0.995607
vt 0.556440 0.580644
vt 0.832456 0.001953
vt 0.846909 0.903487
vt 0.848251 0.903487
vt 0.477598 0.001953
vt 0.477675 0.903487
vt 0.469163 0.903487
vt 0.136069 0.001953
vt 0.121538 0.903487
vt 0.128709 0.903487
vt 0.761303 0.001953
vt 0.640800 0.001953
vt 0.509612 0.903487
vt 0.333134 0.001953
vt 0.210153 0.001953
vt 0.122333 0.903487
vt 0.351685 0.001953
vt 0.595170 0.001953
vt 0.814178 0.903487
vt 0.396153 0.996095
vt 0.590441 0.996095
vt 0.612635 0.996095
vt 0.534985 0.983631
vt 0.377250 0.996095
vt 0.468881 0.971547
vt 0.402672 0.996095
vt 0.610646 0.000000
vt 0.606116 0.996095
vt 0.345407 0.983631
vt 0.390534 0.996095
vt 0.477588 0.971547
vt 0.399290 0.971016
vt 0.370518 0.996095
vt 0.268796 0.996095
vt 0.259082 0.000000
vt 0.362741 0.996095
vt 0.304091 0.996095
vt 0.254500 0.996095
vt 0.705839 0.971016
vt 0.638270 0.996095
vt 0.641591 0.971016
vt 0.173770 0.996095
vt 0.253313 0.000000
vt 0.172957 0.000000
vt 0.638964 0.996095
vt 0.523165 0.996095
vt 0.528181 0.996095
vt 0.622372 0.000000
vt 0.788610 0.996095
vt 0.788643 0.000000
vt 0.755478 0.000000
vt 0.836180 0.996095
vt 0.760155 0.996095
vt 0.789096 0.996095
vt 0.365335 0.000000
vt 0.549771 0.983655
vt 0.493650 0.996095
vt 0.544408 0.983655
vt 0.207501 0.996095
vt 0.200172 0.996095
vt 0.205990 0.996095
vt 0.194228 0.996095
vt 0.185281 0.996095
vt 0.188455 0.996095
vt 0.372061 0.000000
vt 0.480607 0.996095
vt 0.369824 0.996095
vt 0.398141 0.000000
vt 0.172743 0.996095
vt 0.636726 0.000000
vt 0.528047 0.000000
vt 0.248637 0.996095
vt 0.178561 0.996095
vt 0.749706 0.000000
vt 0.646047 0.996095
vt 0.643453 0.000000
vt 0.816369 0.996095
vt 0.823513 0.000000
vt 0.816247 0.000000
vt 0.801418 0.000000
vt 0.808837 0.996095
vt 0.808756 0.000000
vt 0.500627 0.996095
vt 0.493345 0.000000
vt 0.500648 0.000000
vt 0.515442 0.000000
vt 0.508160 0.996095
vt 0.508139 0.000000
vt 0.386420 0.000000
vt 0.220315 0.996095
vt 0.384011 0.996095
vt 0.780657 0.983655
vt 0.823004 0.996095
vt 0.781502 0.983655
vt 0.527395 0.996095
vt 0.624781 0.996095
vt 0.792627 0.996095
vt 0.207520 0.000000
vt 0.200251 0.996095
vt 0.200189 0.000000
vt 0.192967 0.996095
vt 0.185425 0.000000
vt 0.192698 0.000000
vt 0.835094 0.996095
vt 0.746185 0.996095
vt 0.481393 0.996095
vt 0.219770 0.996095
vt 0.488332 0.971016
vt 0.616768 0.971016
vt 0.327222 0.983655
vt 0.207380 0.996095
vt 0.331739 0.983655
vt 0.759693 0.983631
vt 0.618256 0.996095
vt 0.327842 0.983631
vt 0.262605 0.996095
vt 0.570115 0.983631
vt 0.631538 0.996095
vt 0.704697 0.996095
vt 0.618649 0.996095
vt 0.777258 0.983631
vt 0.418346 0.996095
vt 0.830168 0.996095
vt 0.463508 0.971016
vt 0.390138 0.996095
vt 0.739992 0.996095
vt 0.777878 0.983655
vt 0.773360 0.983655
vt 0.801518 0.996095
vt 0.216102 0.996095
vt 0.835947 0.000000
vt 0.515504 0.996095
vt 0.513162 0.996095
vt 0.507366 0.996095
vt 0.501421 0.996095
vt 0.495626 0.996095
vt 0.493283 0.996095
vt 0.801457 0.996095
vt 0.802766 0.996095
vt 0.808589 0.996095
vt 0.814533 0.996095
vt 0.820300 0.996095
vt 0.823677 0.996095
vt 0.485622 0.996095
vt 0.324443 0.983655
vt 0.323598 0.983655
vt 0.185894 0.996095
vt 0.555329 0.983655
vt 0.560692 0.983655
vt 0.515137 0.996095
vt 0.480740 0.000000
vt 0.754288 0.996095
vt 0.220262 0.000000
vt 0.192596 0.996095
vt 0.200128 0.996095
vt 0.508036 0.996095
vt 0.500752 0.996095
vt 0.808654 0.996095
vt 0.815938 0.996095
vt 0.627512 0.971547
vt 0.393919 0.971547
vt 0.636218 0.971547
vt 0.711181 0.971547
vn 0.0000 0.3576 0.9339
vn -0.3097 -0.1788 0.9339
vn 0.3097 -0.1788 0.9339
vn 0.4916 0.2839 0.8232
vn 0.6186 0.3571 -0.6998
vn -0.0000 0.0000 -1.0000
vn -0.0000 0.5621 -0.8270
vn -0.0001 -0.7145 -0.6997
vn -0.4868 -0.2811 -0.8270
vn -0.6188 0.3572 -0.6997
vn -0.6355 -0.3669 -0.6793
vn -0.8028 0.1373 -0.5802
vn -0.2825 -0.7639 -0.5802
vn -0.0000 0.7331 -0.6801
vn 0.6349 -0.3665 -0.6801
vn 0.2985 -0.7512 -0.5887
vn 0.7998 0.1168 -0.5888
vn 0.0000 -0.5677 0.8232
vn -0.4916 0.2839 0.8232
vn 0.5011 0.6343 -0.5888
vn -0.5013 0.6342 -0.5887
vn -0.0107 0.0100 0.9999
vn 0.0000 0.1173 0.9931
vn 0.0140 0.0043 0.9999
vn 0.0033 -0.0143 0.9999
vn 0.1015 -0.0586 0.9931
vn 0.0107 0.0100 0.9999
vn -0.0140 0.0043 0.9999
vn -0.1015 -0.0586 0.9931
vn -0.0033 -0.0143 0.9999
vn 0.2055 -0.4814 0.8521
vn 0.4148 -0.2395 0.8778
vn 0.3142 0.4186 0.8521
vn 0.0000 0.4790 0.8778
vn -0.5196 0.0628 0.8521
vn -0.4148 -0.2395 0.8778
vn 0.5970 0.2522 0.7616
vn 0.5196 0.0628 0.8521
vn 0.5169 0.3909 0.7616
vn -0.5169 0.3909 0.7616
vn -0.3142 0.4186 0.8521
vn -0.5970 0.2522 0.7616
vn -0.0801 -0.6431 0.7616
vn -0.2055 -0.4814 0.8521
vn 0.0801 -0.6431 0.7616
vn 0.4868 -0.2811 -0.8270
vn -0.0457 -0.5064 -0.8611
vn 0.0512 -0.1458 -0.9880
vn 0.0456 -0.5065 -0.8610
vn -0.0259 0.0457 0.9986
vn -0.3418 0.2434 0.9077
vn -0.0068 0.0054 1.0000
vn -0.0399 -0.4178 0.9077
vn 0.1221 -0.9895 0.0771
vn 0.0399 -0.4178 0.9077
vn -0.0266 -0.0453 0.9986
vn -0.0013 -0.0086 1.0000
vn -0.0081 0.0032 1.0000
vn -0.3817 0.1743 0.9077
vn -0.9180 0.3891 0.0771
vn -0.4158 0.2927 -0.8610
vn -0.1504 0.0294 -0.9882
vn -0.4613 0.2137 -0.8611
vn 0.0081 0.0032 1.0000
vn 0.3418 0.2434 0.9077
vn 0.0068 0.0054 1.0000
vn -0.2938 -0.1696 0.9407
vn -0.9883 0.1491 0.0326
vn 0.4159 0.2928 -0.8610
vn 0.1007 0.1173 -0.9880
vn -0.0000 0.4013 -0.9159
vn 0.3476 -0.2007 -0.9159
vn 0.3650 -0.9304 0.0326
vn 0.9180 0.3891 0.0771
vn 0.4615 0.2138 -0.8610
vn 0.2938 -0.1696 0.9407
vn -0.7959 0.6005 0.0771
vn 0.0000 0.0492 0.9988
vn -0.0000 0.3393 0.9407
vn -0.3472 -0.2005 -0.9161
vn -0.1008 -0.0582 -0.9932
vn -0.0497 -0.1449 -0.9882
vn -0.1221 -0.9895 0.0771
vn 0.7959 0.6005 0.0771
vn 0.6233 0.7813 0.0326
vn 0.9883 0.1491 0.0326
vn 0.8655 -0.4997 0.0361
vn -0.6233 0.7813 0.0326
vn -0.0000 0.9993 0.0361
vn 0.0426 -0.0246 0.9988
vn 0.0526 -0.0004 0.9986
vn -0.3650 -0.9304 0.0326
vn -0.8655 -0.4997 0.0361
vn 0.3817 0.1743 0.9077
vn 0.0013 -0.0086 1.0000
vn -0.0426 -0.0246 0.9988
vn 0.0266 -0.0453 0.9986
vn -0.0526 -0.0004 0.9986
vn 0.0259 0.0457 0.9986
vn 0.1519 0.0286 -0.9880
vn -0.1007 0.1172 -0.9880
vn -0.0000 0.1164 -0.9932
vn 0.1008 -0.0582 -0.9932
usemtl Color
s 1
f 25/1/1 23/2/2 24/3/3
f 24/3/3 8/4/4 25/1/1
f 14/5/5 17/6/6 18/7/7
f 17/6/6 12/8/8 15/9/9
f 13/10/10 5/11/11 4/12/12
f 5/13/11 12/8/8 3/14/13
f 13/10/10 2/15/14 18/16/7
f 2/17/14 14/5/5 18/7/7
f 12/8/8 21/18/15 19/19/16
f 21/20/15 14/5/5 20/21/17
f 23/2/2 6/22/18 24/3/3
f 25/1/1 7/23/19 23/2/2
f 20/24/17 14/25/5 22/26/20
f 1/27/21 13/28/10 4/29/12
f 19/30/16 3/31/13 12/32/8
f 27/33/22 9/34/23 6/22/18
f 31/35/24 7/23/19 25/1/1
f 26/36/25 7/23/19 10/37/26
f 28/38/27 6/22/18 9/39/23
f 30/40/28 8/4/4 11/41/29
f 27/42/22 23/2/2 26/43/25
f 6/22/18 28/44/27 24/3/3
f 24/3/3 29/45/30 8/4/4
f 8/4/4 30/46/28 25/1/1
f 7/23/19 26/47/25 23/2/2
f 7/23/19 31/48/24 10/49/26
f 25/1/1 30/50/28 31/51/24
f 6/22/18 23/2/2 27/52/22
f 24/3/3 28/53/27 29/54/30
f 8/4/4 29/55/30 11/56/29
f 10/57/26 37/58/31 35/59/32
f 9/60/23 40/61/33 33/62/34
f 11/63/29 39/64/35 32/65/36
f 41/66/37 10/67/26 36/68/38
f 45/69/39 26/70/25 41/71/37
f 45/72/39 9/73/23 27/74/22
f 44/75/40 9/76/23 34/77/41
f 46/78/42 28/79/27 44/80/40
f 46/81/42 11/82/29 29/83/30
f 43/84/43 11/85/29 38/86/44
f 42/87/45 30/88/28 43/89/43
f 42/90/45 10/91/26 31/92/24
f 16/93/46 12/8/8 17/6/6
f 16/93/46 17/6/6 14/5/5
f 17/6/6 15/9/9 13/10/10
f 13/10/10 15/9/9 5/11/11
f 5/13/11 15/94/9 12/8/8
f 13/10/10 1/95/21 2/15/14
f 2/17/14 22/96/20 14/5/5
f 12/8/8 16/97/46 21/18/15
f 21/20/15 16/93/46 14/5/5
f 10/98/26 35/99/32 36/100/38
f 9/101/23 33/102/34 34/103/41
f 11/104/29 32/105/36 38/106/44
f 41/66/37 26/107/25 10/67/26
f 45/69/39 27/108/22 26/70/25
f 45/72/39 40/109/33 9/73/23
f 44/75/40 28/110/27 9/76/23
f 46/78/42 29/111/30 28/79/27
f 46/81/42 39/112/35 11/82/29
f 43/84/43 30/113/28 11/85/29
f 42/87/45 31/114/24 30/88/28
f 42/90/45 37/115/31 10/91/26
f 13/10/10 18/16/7 17/6/6
usemtl Black
f 76/116/47 52/117/48 74/118/49
f 91/119/50 78/120/51 101/121/52
f 79/122/53 84/123/54 80/124/55
f 95/125/56 79/126/53 100/127/57
f 103/128/58 78/129/51 81/130/59
f 78/129/51 87/131/60 81/130/59
f 75/132/61 50/133/62 73/134/63
f 98/135/64 82/136/65 102/137/66
f 59/138/67 87/139/60 63/140/68
f 72/141/69 55/142/70 56/143/71
f 84/144/54 57/145/72 65/146/73
f 88/147/74 57/148/72 71/149/75
f 61/150/76 84/144/54 65/146/73
f 86/151/77 73/134/63 87/131/60
f 90/152/78 60/153/79 91/154/50
f 58/155/80 51/156/81 49/157/82
f 51/158/81 58/159/80 50/160/62
f 86/161/77 56/162/71 75/163/61
f 85/164/83 74/118/49 84/123/54
f 87/139/60 58/165/80 63/140/68
f 83/166/84 56/143/71 64/167/85
f 73/168/63 50/169/62 58/165/80
f 88/170/74 72/171/69 83/172/84
f 57/173/72 69/174/86 68/175/87
f 65/176/73 57/177/72 68/178/87
f 56/179/71 66/180/88 67/181/89
f 64/182/85 56/183/71 67/184/89
f 85/185/83 58/186/80 76/187/47
f 82/136/65 88/170/74 83/172/84
f 92/188/90 61/189/76 93/190/91
f 60/191/79 83/166/84 64/167/85
f 74/192/49 52/193/48 57/145/72
f 62/194/92 59/195/67 70/196/93
f 59/197/67 63/198/68 70/199/93
f 61/200/76 88/147/74 77/201/94
f 60/202/79 86/161/77 78/120/51
f 59/203/67 85/185/83 79/126/53
f 100/204/57 80/124/55 99/205/95
f 89/206/96 59/207/67 95/208/56
f 94/209/97 80/210/55 61/150/76
f 96/211/98 81/212/59 59/138/67
f 97/213/99 82/214/65 60/191/79
f 72/171/69 53/215/100 55/216/70
f 77/201/94 93/217/91 61/200/76
f 76/116/47 49/218/82 52/117/48
f 91/119/50 60/202/79 78/120/51
f 71/149/75 57/148/72 53/219/100
f 79/122/53 85/164/83 84/123/54
f 95/125/56 59/203/67 79/126/53
f 103/128/58 101/220/52 78/129/51
f 78/129/51 86/151/77 87/131/60
f 75/132/61 47/221/101 50/133/62
f 98/135/64 77/222/94 82/136/65
f 92/223/90 94/224/97 61/225/76
f 59/138/67 81/212/59 87/139/60
f 76/187/47 58/186/80 49/226/82
f 84/144/54 74/192/49 57/145/72
f 88/147/74 69/227/86 57/148/72
f 61/150/76 80/210/55 84/144/54
f 56/228/71 55/229/70 48/230/102
f 48/231/102 47/232/101 56/233/71
f 57/234/72 52/235/48 54/236/103
f 54/237/103 53/238/100 57/239/72
f 86/151/77 75/132/61 73/134/63
f 75/163/61 56/162/71 47/240/101
f 89/241/96 96/242/98 59/243/67
f 90/244/78 97/245/99 60/246/79
f 86/161/77 66/247/88 56/162/71
f 85/164/83 76/116/47 74/118/49
f 87/139/60 73/168/63 58/165/80
f 83/166/84 72/141/69 56/143/71
f 88/170/74 71/248/75 72/171/69
f 85/185/83 62/249/92 58/186/80
f 82/136/65 77/222/94 88/170/74
f 60/191/79 82/214/65 83/166/84
f 58/250/80 70/199/93 63/198/68
f 62/194/92 70/196/93 58/251/80
f 64/182/85 67/184/89 60/252/79
f 60/253/79 67/181/89 66/180/88
f 65/176/73 68/178/87 61/254/76
f 61/255/76 68/175/87 69/174/86
f 61/200/76 69/227/86 88/147/74
f 60/202/79 66/247/88 86/161/77
f 59/203/67 62/249/92 85/185/83
f 100/204/57 79/122/53 80/124/55
f 94/209/97 99/256/95 80/210/55
f 96/211/98 103/257/58 81/212/59
f 97/213/99 102/258/66 82/214/65
f 72/171/69 71/248/75 53/215/100
f 77/201/94 98/259/64 93/217/91
