# Blender v3.1.2 OBJ File: ''
# www.blender.org
mtllib materials.mtl
o Gem_LOD1_Cylinder.007
v 0.147637 -0.074402 -0.035140
v 0.138267 -0.090630 -0.035140
v 0.149252 -0.078013 -0.035140
v 0.149846 -0.081443 -0.035140
v 0.149390 -0.084520 -0.035140
v 0.147907 -0.087090 -0.035140
v 0.145470 -0.089023 -0.035140
v 0.142202 -0.090223 -0.035140
v -0.009369 0.165084 -0.035140
v 0.009369 0.165084 -0.035140
v -0.007050 0.168289 -0.035140
v -0.004376 0.170519 -0.035140
v -0.001484 0.171662 -0.035140
v 0.001484 0.171662 -0.035140
v 0.004376 0.170519 -0.035140
v 0.007050 0.168289 -0.035140
v -0.138267 -0.090630 -0.035140
v -0.147637 -0.074402 -0.035140
v -0.142202 -0.090223 -0.035140
v -0.145470 -0.089023 -0.035140
v -0.147907 -0.087090 -0.035140
v -0.149390 -0.084520 -0.035140
v -0.149846 -0.081443 -0.035140
v -0.149252 -0.078013 -0.035140
v 0.077139 -0.052074 -0.034782
v 0.083682 -0.040741 -0.034782
v 0.082434 -0.049166 -0.034782
v 0.083811 -0.046781 -0.034782
v 0.006543 0.092868 -0.034782
v -0.006543 0.092868 -0.034782
v 0.001377 0.095999 -0.034782
v -0.001377 0.095999 -0.034782
v -0.083682 -0.040741 -0.034782
v -0.077139 -0.052074 -0.034782
v -0.083811 -0.046781 -0.034782
v -0.082434 -0.049166 -0.034782
v 0.007050 0.100054 0.001734
v -0.007050 0.100054 0.001734
v 0.001484 0.103428 0.001734
v -0.001484 0.103428 0.001734
v 0.083109 -0.056106 0.001734
v 0.090159 -0.043896 0.001734
v 0.088814 -0.052972 0.001734
v 0.090298 -0.050403 0.001734
v -0.090159 -0.043896 0.001734
v -0.083109 -0.056106 0.001734
v -0.090298 -0.050403 0.001734
v -0.088814 -0.052972 0.001734
v -0.007050 0.117077 0.001282
v 0.007050 0.117077 0.001282
v -0.001484 0.120450 0.001282
v 0.001484 0.120450 0.001282
v -0.007050 0.126842 -0.001502
v 0.007050 0.126842 -0.001502
v -0.001484 0.130215 -0.001502
v 0.001484 0.130215 -0.001502
v 0.104950 -0.052435 0.001044
v 0.097901 -0.064646 0.001044
v 0.105089 -0.058942 0.001044
v 0.103605 -0.061512 0.001044
v 0.113358 -0.057289 -0.001502
v 0.106308 -0.069500 -0.001502
v 0.113496 -0.063796 -0.001502
v 0.112013 -0.066366 -0.001502
v -0.097851 -0.064617 0.001282
v -0.104901 -0.052407 0.001282
v -0.103556 -0.061484 0.001282
v -0.105040 -0.058914 0.001282
v -0.106308 -0.069500 -0.001502
v -0.113358 -0.057289 -0.001502
v -0.112013 -0.066366 -0.001502
v -0.113496 -0.063796 -0.001502
v -0.000000 -0.007793 -0.178613
v -0.006765 0.003923 -0.178613
v 0.006765 0.003923 -0.178613
v -0.004724 -0.002710 -0.181297
v 0.004724 -0.002710 -0.181297
v -0.000000 0.000018 -0.182895
v -0.000000 0.005473 -0.181297
v 0.140635 -0.088989 -0.037983
v 0.147399 -0.077273 -0.037983
v 0.145115 -0.083764 -0.040911
v 0.006765 0.166314 -0.037983
v -0.006765 0.166314 -0.037983
v -0.000000 0.167582 -0.040911
v -0.147399 -0.077272 -0.037983
v -0.140635 -0.088989 -0.037983
v -0.145115 -0.083764 -0.040911
v 0.101548 0.005427 -0.035140
v 0.055459 0.085256 -0.035140
v 0.062153 0.005427 0.001734
v 0.035761 0.051139 0.001734
v 0.069081 0.005427 0.001687
v 0.039225 0.057139 0.001687
v 0.043494 0.064532 -0.001502
v 0.077618 0.005427 -0.001502
v 0.071980 0.005427 0.001282
v 0.040675 0.059650 0.001282
v 0.042174 0.062246 0.000162
v 0.074978 0.005427 0.000162
v -0.101548 0.005427 -0.035140
v -0.055459 0.085256 -0.035140
v -0.035761 0.051139 0.001734
v -0.062153 0.005427 0.001734
v -0.039225 0.057139 0.001687
v -0.069081 0.005427 0.001687
v -0.077618 0.005427 -0.001502
v -0.043494 0.064532 -0.001502
v -0.040675 0.059650 0.001282
v -0.071980 0.005427 0.001282
v -0.074978 0.005427 0.000162
v -0.042174 0.062246 0.000162
v 0.046089 -0.090630 -0.035140
v -0.046089 -0.090630 -0.035140
v -0.026392 -0.056513 0.001734
v 0.026392 -0.056513 0.001734
v -0.029856 -0.062513 0.001687
v 0.029856 -0.062513 0.001687
v -0.031306 -0.065024 0.001282
v 0.031305 -0.065024 0.001282
v 0.034124 -0.069907 -0.001502
v -0.034124 -0.069907 -0.001502
v -0.032804 -0.067620 0.000162
v 0.032804 -0.067620 0.000162
vt 0.827213 0.990031
vt 0.830218 0.990031
vt 0.826772 0.995607
vt 0.408149 0.012340
vt 0.343333 0.632020
vt 0.352031 0.013613
vt 0.814187 0.995607
vt 0.638294 0.965319
vt 0.552550 0.976155
vt 0.278328 0.995607
vt 0.274882 0.990031
vt 0.277887 0.990031
vt 0.625525 0.684483
vt 0.569981 0.576530
vt 0.619080 0.938130
vt 0.436921 0.938130
vt 0.399657 0.962820
vt 0.445228 0.962820
vt 0.601649 0.938130
vt 0.689265 0.962820
vt 0.598122 0.962820
vt 0.731214 0.538323
vt 0.633466 0.012340
vt 0.696951 0.012340
vt 0.608094 0.684483
vt 0.699846 0.576530
vt 0.741469 0.965319
vt 0.565135 0.976155
vt 0.568729 0.962820
vt 0.614300 0.962820
vt 0.454502 0.538323
vt 0.471634 0.012340
vt 0.352031 0.096126
vt 0.413060 0.024771
vt 0.360397 0.096126
vt 0.418637 0.362181
vt 0.569981 0.096126
vt 0.631010 0.024771
vt 0.613579 0.024771
vt 0.727272 0.096126
vt 0.610791 0.362181
vt 0.616035 0.012340
vt 0.735638 0.096126
vt 0.489065 0.012340
vt 0.633166 0.538323
vt 0.368488 0.006799
vt 0.424031 0.684483
vt 0.628222 0.362181
vt 0.719181 0.006799
vt 0.569981 0.006799
vt 0.387823 0.576530
vt 0.831324 0.990031
vt 0.829390 0.995607
vt 0.830326 0.995607
vt 0.830845 0.995607
vt 0.827651 0.995607
vt 0.827715 0.990031
vt 0.823182 0.990031
vt 0.823388 0.995607
vt 0.817103 0.990031
vt 0.818640 0.995607
vt 0.535119 0.990031
vt 0.539435 0.990031
vt 0.539965 0.995607
vt 0.544408 0.990031
vt 0.541800 0.995607
vt 0.549875 0.995607
vt 0.545093 0.995607
vt 0.555225 0.995607
vt 0.555310 0.990031
vt 0.560692 0.990031
vt 0.560007 0.995607
vt 0.565665 0.990031
vt 0.565135 0.995607
vt 0.563299 0.995607
vt 0.295317 0.990031
vt 0.287997 0.990031
vt 0.290913 0.995607
vt 0.281918 0.990031
vt 0.286460 0.995607
vt 0.277449 0.995607
vt 0.281712 0.995607
vt 0.274624 0.990031
vt 0.273776 0.990031
vt 0.274255 0.995607
vt 0.275710 0.995607
vt 0.713246 0.576530
vt 0.705909 0.962820
vt 0.701702 0.962820
vt 0.717779 0.576530
vt 0.708471 0.962820
vt 0.721388 0.576530
vt 0.709259 0.962820
vt 0.544408 0.576530
vt 0.549988 0.962820
vt 0.549790 0.576530
vt 0.555310 0.576530
vt 0.555112 0.962820
vt 0.560692 0.576530
vt 0.391854 0.576530
vt 0.399190 0.962820
vt 0.387320 0.576530
vt 0.396629 0.962820
vt 0.384560 0.576530
vt 0.383712 0.576530
vt 0.807800 0.986833
vt 0.760938 0.630627
vt 0.756405 0.630627
vt 0.812333 0.986833
vt 0.763698 0.630627
vt 0.815941 0.986833
vt 0.764547 0.630627
vt 0.549790 0.630627
vt 0.544408 0.986833
vt 0.544408 0.630627
vt 0.555310 0.630627
vt 0.549790 0.986833
vt 0.560692 0.986833
vt 0.560692 0.630627
vt 0.341659 0.630627
vt 0.293269 0.986833
vt 0.290264 0.986833
vt 0.753571 0.096126
vt 0.749038 0.096126
vt 0.756331 0.096126
vt 0.757179 0.096126
vt 0.549790 0.096126
vt 0.555310 0.096126
vt 0.340553 0.630627
vt 0.289159 0.986833
vt 0.341402 0.630627
vt 0.290007 0.986833
vt 0.344162 0.630627
vt 0.292767 0.986833
vt 0.297300 0.986833
vt 0.303380 0.986833
vt 0.348695 0.630627
vt 0.310700 0.986833
vt 0.354774 0.630627
vt 0.749609 0.631370
vt 0.348769 0.096126
vt 0.347920 0.096126
vt 0.351529 0.096126
vt 0.356062 0.096126
vt 0.732581 0.006799
vt 0.739875 0.006799
vt 0.720540 0.576530
vt 0.740723 0.006799
vt 0.544408 0.006799
vt 0.549790 0.006799
vt 0.555310 0.006799
vt 0.560692 0.006799
vt 0.372519 0.006799
vt 0.367985 0.006799
vt 0.365225 0.006799
vt 0.364377 0.006799
vt 0.650597 0.538323
vt 0.569981 0.630627
vt 0.569981 0.990031
vt 0.809782 0.990031
vt 0.743005 0.630627
vt 0.471933 0.538323
vt 0.552550 0.017363
vt 0.552527 0.017363
vt 0.556440 0.017363
vt 0.539965 0.017362
vt 0.545326 0.017362
vt 0.540581 0.017362
vt 0.565135 0.017362
vt 0.559796 0.017362
vt 0.560629 0.017362
vt 0.279242 0.995607
vt 0.287322 0.995607
vt 0.544470 0.995607
vt 0.544471 0.017363
vt 0.560630 0.995607
vt 0.817778 0.995607
vt 0.274774 0.995607
vt 0.825858 0.995607
vt 0.449375 0.965319
vt 0.539965 0.976155
vt 0.681068 0.684483
vt 0.686462 0.362181
vt 0.692039 0.024771
vt 0.753069 0.096126
vt 0.668178 0.938130
vt 0.705443 0.962820
vt 0.717277 0.576530
vt 0.659872 0.962820
vt 0.362095 0.630627
vt 0.373886 0.538323
vt 0.344664 0.634441
vt 0.736612 0.006799
vt 0.479575 0.684483
vt 0.535119 0.576530
vt 0.535119 0.006799
vt 0.486020 0.938130
vt 0.476878 0.362181
vt 0.474090 0.024771
vt 0.535119 0.096126
vt 0.535119 0.630627
vt 0.536371 0.962820
vt 0.494309 0.362181
vt 0.497006 0.684483
vt 0.369462 0.096126
vt 0.491521 0.024771
vt 0.405254 0.576530
vt 0.385919 0.006799
vt 0.503451 0.938130
vt 0.415835 0.962820
vt 0.506978 0.962820
vt 0.655725 0.965319
vt 0.363631 0.965319
vt 0.466806 0.965319
vt 0.544993 0.962820
vt 0.560107 0.962820
vt 0.403398 0.962820
vt 0.395841 0.962820
vt 0.801720 0.986833
vt 0.815093 0.986833
vt 0.814835 0.986833
vt 0.763441 0.630627
vt 0.811831 0.986833
vt 0.539435 0.630627
vt 0.539435 0.986833
vt 0.535119 0.986833
vt 0.555310 0.986833
vt 0.565665 0.986833
vt 0.569981 0.986833
vt 0.565665 0.630627
vt 0.544408 0.096126
vt 0.560692 0.096126
vt 0.737114 0.006799
vt 0.548660 0.017363
vt 0.564519 0.017362
vt 0.744703 0.096126
vt 0.794400 0.986833
vt 0.377828 0.096126
vt 0.750326 0.630627
vt 0.722360 0.986896
vt 0.728420 0.986896
vt 0.733242 0.986896
vt 0.732108 0.986896
vt 0.518464 0.986896
vt 0.511271 0.986896
vt 0.496700 0.986896
vt 0.503893 0.986896
vt 0.281922 0.986896
vt 0.283056 0.986896
vt 0.292804 0.986896
vt 0.286745 0.986896
vn 0.8891 0.4548 0.0508
vn 0.9721 0.2258 0.0642
vn 0.8020 0.1958 -0.5643
vn -0.6359 0.3613 0.6820
vn -0.5852 0.1979 0.7863
vn -0.2485 0.1053 0.9629
vn 0.2314 -0.7925 -0.5643
vn 0.0011 -0.9999 0.0154
vn -0.0000 -0.6950 -0.7190
vn -0.8020 0.1958 -0.5643
vn -0.9721 0.2258 0.0642
vn -0.8891 0.4548 0.0508
vn 0.0725 0.0422 0.9965
vn -0.3936 -0.4071 0.8242
vn -0.5711 -0.3308 0.7512
vn 0.5721 -0.3292 0.7512
vn 0.9477 -0.2838 0.1458
vn 0.7197 -0.6789 0.1458
vn -0.0009 0.6600 0.7512
vn -0.2281 0.9627 0.1458
vn 0.2281 0.9627 0.1458
vn 0.8665 0.4990 0.0154
vn 0.6308 0.3701 0.6820
vn 0.6358 0.3603 0.6826
vn 0.0009 -0.0842 0.9965
vn -0.1541 0.5347 0.8308
vn 0.6019 0.3475 -0.7190
vn -0.7197 -0.6789 0.1458
vn -0.9477 -0.2838 0.1458
vn -0.8654 0.5009 0.0154
vn -0.6308 0.3701 0.6820
vn -0.4306 0.2449 0.8687
vn -0.2426 0.1392 0.9601
vn 0.2155 0.1626 0.9629
vn 0.4274 0.2505 0.8687
vn 0.0047 -0.4947 0.8691
vn 0.0338 -0.2578 0.9656
vn 0.0024 -0.2788 0.9603
vn 0.0059 -0.7308 0.6826
vn -0.0051 -0.7313 0.6820
vn -0.0728 0.0417 0.9965
vn 0.2419 0.1405 0.9601
vn 0.5493 -0.1373 0.8242
vn 0.9981 0.0094 0.0606
vn 0.6107 -0.3526 -0.7090
vn 0.9381 -0.3279 0.1119
vn 0.7530 -0.6485 0.1119
vn 0.4910 -0.8691 0.0606
vn 0.2905 -0.9547 0.0642
vn -0.8385 0.5426 0.0508
vn -0.6816 0.7289 0.0642
vn -0.5706 0.5967 -0.5643
vn -0.5072 0.8597 0.0606
vn -0.0000 0.7052 -0.7090
vn -0.1851 0.9763 0.1119
vn 0.1851 0.9763 0.1119
vn 0.5072 0.8597 0.0606
vn 0.6816 0.7289 0.0642
vn 0.5706 0.5967 -0.5643
vn -0.0507 -0.9974 0.0508
vn -0.2905 -0.9547 0.0642
vn -0.2314 -0.7925 -0.5643
vn -0.4910 -0.8691 0.0606
vn -0.6107 -0.3526 -0.7090
vn -0.7530 -0.6485 0.1119
vn -0.9381 -0.3279 0.1119
vn -0.9981 0.0094 0.0606
vn -0.6800 0.7075 0.1926
vn -0.3816 0.3803 0.8425
vn -0.9527 0.2352 0.1926
vn -0.5402 -0.1339 0.8308
vn 0.3936 -0.4071 0.8242
vn 0.2727 -0.9426 0.1926
vn 0.1411 -0.5274 0.8378
vn -0.1411 -0.5274 0.8378
vn -0.2727 -0.9426 0.1926
vn 0.1557 0.5444 0.8242
vn 0.6800 0.7075 0.1926
vn 0.3862 0.3860 0.8378
vn 0.9527 0.2352 0.1926
vn 0.5274 0.1415 0.8378
vn 0.3365 -0.3599 0.8702
vn 0.1178 -0.5974 0.7933
vn 0.4800 -0.1115 0.8702
vn 0.5762 0.1967 0.7933
vn -0.1452 0.4791 0.8656
vn -0.4640 0.4079 0.7863
vn 0.1452 0.4791 0.8656
vn 0.4640 0.4079 0.7863
vn 0.1157 -0.1307 0.9846
vn 0.1710 -0.0349 0.9846
vn 0.2401 0.0996 0.9656
vn -0.0580 0.1720 0.9834
vn 0.0580 0.1720 0.9834
vn -0.4876 -0.1138 0.8656
vn -0.3423 -0.3653 0.8656
vn -0.1212 -0.6058 0.7863
vn -0.1780 -0.0357 0.9834
vn -0.1199 -0.1363 0.9834
vn -0.0331 -0.2679 0.9629
vn -0.5201 0.1403 0.8425
vn -0.2155 0.1626 0.9629
vn 0.8654 0.5009 0.0154
vn 0.8385 0.5426 0.0508
vn 0.0507 -0.9974 0.0508
vn -0.0011 -0.9999 0.0154
vn 0.0000 -0.0000 -1.0000
vn 0.4156 -0.2400 -0.8773
vn -0.6019 0.3475 -0.7190
vn -0.4156 -0.2400 -0.8773
vn -0.0000 0.4799 -0.8773
vn 0.0733 0.0413 0.9965
vn 0.2427 0.1373 0.9603
vn 0.4307 0.2432 0.8691
vn -0.5721 -0.3292 0.7512
vn -0.8665 0.4990 0.0154
vn -0.0725 0.0422 0.9965
vn 0.5711 -0.3308 0.7512
vn -0.2419 0.1405 0.9601
vn -0.4274 0.2505 0.8687
vn -0.0007 -0.2798 0.9601
vn -0.0003 -0.0839 0.9965
vn -0.0032 -0.4954 0.8687
vn 0.0009 0.6600 0.7512
vn 0.0000 0.0000 1.0000
usemtl Color
s 1
f 1/1/1 3/2/2 81/3/3
f 107/4/4 70/5/5 66/6/6
f 80/7/7 113/8/8 73/9/9
f 86/10/10 24/11/11 18/12/12
f 94/13/13 37/14/14 92/15/15
f 104/16/16 33/17/17 30/18/18
f 116/19/19 25/20/20 34/21/21
f 89/22/22 95/23/23 96/24/24
f 118/25/25 41/26/26 116/19/19
f 89/27/22 81/3/3 75/28/27
f 92/15/15 29/29/28 26/30/29
f 102/31/30 107/4/4 108/32/31
f 107/4/4 66/33/6 111/34/32
f 111/34/32 66/35/6 110/36/33
f 95/23/23 50/37/34 99/38/35
f 124/39/36 58/40/37 120/41/38
f 121/42/39 58/43/37 124/39/36
f 122/44/40 113/45/8 121/42/39
f 110/36/33 66/46/6 106/47/41
f 99/38/35 50/37/34 98/48/42
f 120/41/38 58/49/37 118/25/25
f 98/48/42 50/50/34 94/13/13
f 106/47/41 45/51/43 104/16/16
f 3/2/2 4/52/44 82/53/45
f 4/52/44 5/54/46 82/55/45
f 82/55/45 5/54/46 6/56/47
f 6/57/47 7/58/48 82/59/45
f 7/58/48 8/60/49 82/59/45
f 8/60/49 80/7/7 82/61/45
f 9/62/50 11/63/51 84/64/52
f 11/63/51 12/65/53 85/66/54
f 12/65/53 13/67/55 85/68/54
f 85/68/54 13/67/55 14/69/56
f 14/70/56 15/71/57 85/72/54
f 15/71/57 16/73/58 85/72/54
f 16/73/58 83/74/59 85/75/54
f 17/76/60 19/77/61 87/78/62
f 19/77/61 20/79/63 88/80/64
f 20/79/63 21/81/65 88/82/64
f 22/83/66 23/84/67 88/85/64
f 23/84/67 24/11/11 88/85/64
f 24/11/11 86/10/10 88/86/64
f 41/87/26 27/88/68 25/89/20
f 43/90/69 28/91/70 27/88/68
f 28/91/70 42/92/71 26/93/29
f 38/94/72 32/95/73 40/96/74
f 32/95/73 39/97/75 40/96/74
f 31/98/76 37/99/14 39/97/75
f 46/100/77 36/101/78 48/102/79
f 48/102/79 35/103/80 47/104/81
f 35/103/80 45/105/43 47/104/81
f 7/106/48 64/107/82 62/108/83
f 6/109/47 63/110/84 64/107/82
f 63/110/84 4/111/44 61/112/85
f 55/113/86 12/114/53 53/115/87
f 56/116/88 13/117/55 55/113/86
f 15/118/57 56/116/88 54/119/89
f 70/120/5 18/121/12 24/122/11
f 62/108/83 60/123/90 58/124/37
f 60/123/90 63/110/84 59/125/91
f 59/125/91 61/112/85 57/126/92
f 53/115/87 51/127/93 55/113/86
f 51/127/93 56/116/88 55/113/86
f 52/128/94 54/119/89 56/116/88
f 70/129/5 24/122/11 23/130/67
f 72/131/95 23/130/67 22/132/66
f 71/133/96 22/132/66 21/134/65
f 20/135/63 71/133/96 21/134/65
f 19/136/61 69/137/97 20/135/63
f 17/138/60 69/139/97 19/136/61
f 61/140/85 89/22/22 96/24/24
f 70/129/5 68/141/98 66/142/6
f 68/141/98 71/133/96 67/143/99
f 67/143/99 69/137/97 65/144/100
f 58/145/37 43/90/69 41/87/26
f 43/90/69 59/146/91 44/147/101
f 44/147/101 57/148/92 42/92/71
f 49/149/102 40/96/74 51/150/93
f 40/96/74 52/151/94 51/150/93
f 39/97/75 50/152/34 52/151/94
f 65/153/100 48/102/79 67/154/99
f 67/154/99 47/104/81 68/155/98
f 47/104/81 66/156/6 68/155/98
f 90/157/103 54/158/89 95/23/23
f 28/91/70 44/147/101 42/92/71
f 43/90/69 44/147/101 28/91/70
f 41/87/26 43/90/69 27/88/68
f 83/74/59 16/73/58 10/159/104
f 84/64/52 11/63/51 85/66/54
f 81/3/3 3/2/2 82/53/45
f 80/7/7 8/60/49 2/160/105
f 121/42/39 62/161/83 58/43/37
f 122/44/40 114/162/106 113/45/8
f 73/163/9 78/164/107 77/165/108
f 74/166/109 78/167/107 76/168/110
f 75/169/27 78/170/107 79/171/111
f 74/166/109 88/172/64 86/10/10
f 80/7/7 2/160/105 113/8/8
f 88/173/64 73/163/9 87/78/62
f 74/166/109 85/174/54 79/175/111
f 85/176/54 75/169/27 79/171/111
f 73/163/9 82/177/45 80/7/7
f 88/82/64 21/81/65 22/178/66
f 82/179/45 75/169/27 81/3/3
f 102/180/30 84/64/52 74/181/109
f 106/47/41 66/46/6 45/51/43
f 98/48/42 93/182/112 97/183/113
f 100/184/114 98/48/42 97/183/113
f 96/24/24 57/185/92 61/140/85
f 95/23/23 100/184/114 96/24/24
f 91/186/115 26/187/29 42/188/71
f 92/15/15 26/189/29 91/186/115
f 69/190/97 114/162/106 122/44/40
f 101/191/116 70/192/5 107/4/4
f 93/182/112 42/188/71 57/193/92
f 93/182/112 92/15/15 91/186/115
f 105/194/117 38/195/72 49/196/102
f 106/47/41 103/197/118 105/194/117
f 110/36/33 105/194/117 109/198/119
f 111/34/32 109/198/119 112/199/120
f 108/32/31 49/200/102 53/201/87
f 107/4/4 112/199/120 108/32/31
f 113/45/8 62/161/83 121/42/39
f 103/197/118 30/202/18 38/195/72
f 87/78/62 19/77/61 88/80/64
f 94/13/13 50/50/34 37/14/14
f 119/203/121 118/25/25 117/204/122
f 53/201/87 102/31/30 108/32/31
f 122/44/40 65/205/100 69/190/97
f 121/42/39 123/206/123 122/44/40
f 123/206/123 120/41/38 119/203/121
f 117/204/122 46/207/77 65/208/100
f 117/204/122 116/19/19 115/209/124
f 115/209/124 34/210/21 46/207/77
f 116/19/19 34/211/21 115/209/124
f 95/23/23 54/158/89 50/37/34
f 89/27/22 75/28/27 90/212/103
f 90/212/103 83/74/59 10/159/104
f 102/180/30 74/181/109 101/213/116
f 101/213/116 86/10/10 18/12/12
f 113/8/8 114/214/106 73/9/9
f 114/214/106 87/78/62 73/9/9
f 102/31/30 101/191/116 107/4/4
f 92/15/15 37/14/14 29/29/28
f 89/27/22 1/1/1 81/3/3
f 118/25/25 58/49/37 41/26/26
f 89/22/22 90/157/103 95/23/23
f 116/19/19 41/26/26 25/20/20
f 104/16/16 45/51/43 33/17/17
f 38/94/72 30/215/18 32/95/73
f 32/95/73 31/98/76 39/97/75
f 31/98/76 29/216/28 37/99/14
f 46/100/77 34/217/21 36/101/78
f 48/102/79 36/101/78 35/103/80
f 35/103/80 33/218/17 45/105/43
f 8/219/49 7/106/48 62/108/83
f 7/106/48 6/109/47 64/107/82
f 6/109/47 5/220/46 63/110/84
f 63/110/84 5/220/46 4/111/44
f 61/112/85 4/111/44 3/221/2
f 61/222/85 3/221/2 1/223/1
f 53/224/87 11/225/51 9/226/50
f 53/115/87 12/114/53 11/225/51
f 55/113/86 13/117/55 12/114/53
f 56/116/88 14/227/56 13/117/55
f 15/118/57 14/227/56 56/116/88
f 16/228/58 15/118/57 54/119/89
f 10/229/104 16/228/58 54/230/89
f 62/108/83 64/107/82 60/123/90
f 60/123/90 64/107/82 63/110/84
f 59/125/91 63/110/84 61/112/85
f 53/115/87 49/231/102 51/127/93
f 51/127/93 52/128/94 56/116/88
f 52/128/94 50/232/34 54/119/89
f 72/131/95 70/129/5 23/130/67
f 71/133/96 72/131/95 22/132/66
f 20/135/63 69/137/97 71/133/96
f 61/140/85 1/223/1 89/22/22
f 70/129/5 72/131/95 68/141/98
f 68/141/98 72/131/95 71/133/96
f 67/143/99 71/133/96 69/137/97
f 58/145/37 60/233/90 43/90/69
f 43/90/69 60/233/90 59/146/91
f 44/147/101 59/146/91 57/148/92
f 49/149/102 38/94/72 40/96/74
f 40/96/74 39/97/75 52/151/94
f 39/97/75 37/99/14 50/152/34
f 65/153/100 46/100/77 48/102/79
f 67/154/99 48/102/79 47/104/81
f 47/104/81 45/105/43 66/156/6
f 90/157/103 10/229/104 54/158/89
f 73/163/9 76/234/110 78/164/107
f 74/166/109 79/175/111 78/167/107
f 75/169/27 77/235/108 78/170/107
f 74/166/109 76/168/110 88/172/64
f 88/173/64 76/234/110 73/163/9
f 74/166/109 84/64/52 85/174/54
f 85/176/54 83/74/59 75/169/27
f 73/163/9 77/165/108 82/177/45
f 82/179/45 77/235/108 75/169/27
f 102/180/30 9/62/50 84/64/52
f 97/183/113 93/182/112 57/193/92
f 98/48/42 94/13/13 93/182/112
f 100/184/114 97/183/113 57/236/92
f 100/184/114 99/38/35 98/48/42
f 96/24/24 100/184/114 57/185/92
f 95/23/23 99/38/35 100/184/114
f 69/190/97 17/138/60 114/162/106
f 101/191/116 18/121/12 70/192/5
f 93/182/112 91/186/115 42/188/71
f 93/182/112 94/13/13 92/15/15
f 105/194/117 103/197/118 38/195/72
f 106/47/41 104/16/16 103/197/118
f 109/198/119 105/194/117 49/196/102
f 110/36/33 106/47/41 105/194/117
f 112/199/120 109/198/119 49/200/102
f 111/34/32 110/36/33 109/198/119
f 108/32/31 112/199/120 49/200/102
f 107/4/4 111/34/32 112/199/120
f 113/45/8 2/237/105 62/161/83
f 103/197/118 104/16/16 30/18/18
f 119/203/121 117/204/122 65/208/100
f 119/203/121 120/41/38 118/25/25
f 53/201/87 9/226/50 102/31/30
f 122/44/40 123/206/123 65/205/100
f 121/42/39 124/39/36 123/206/123
f 123/206/123 119/203/121 65/238/100
f 123/206/123 124/39/36 120/41/38
f 117/204/122 115/209/124 46/207/77
f 117/204/122 118/25/25 116/19/19
f 90/212/103 75/28/27 83/74/59
f 101/213/116 74/181/109 86/10/10
f 114/214/106 17/76/60 87/78/62
f 2/237/105 8/219/49 62/239/83
usemtl Black
f 25/240/125 27/241/125 26/242/125
f 27/241/125 28/243/125 26/242/125
f 29/244/125 31/245/125 30/246/125
f 31/245/125 32/247/125 30/246/125
f 33/248/125 35/249/125 34/250/125
f 35/249/125 36/251/125 34/250/125
f 25/20/125 26/30/125 30/18/125
f 26/30/125 29/244/125 30/18/125
f 34/21/125 25/20/125 30/18/125
f 30/18/125 33/248/125 34/21/125
